<?xml version="1.0" standalone="no"?>
<!DOCTYPE svg PUBLIC "-//W3C//DTD SVG 20010904//EN"
 "http://www.w3.org/TR/2001/REC-SVG-20010904/DTD/svg10.dtd">
<svg version="1.0" xmlns="http://www.w3.org/2000/svg"
 width="118.136333pt" height="133.566832pt" viewBox="0 0 118.136333 133.566832"
 preserveAspectRatio="xMidYMid meet">
<metadata>
Created by potrace 1.12, written by Peter Selinger 2001-2015
</metadata>
<g transform="translate(-16.912098,136.000000) scale(0.100000,-0.100000)"
fill="#000000" stroke="none">
<path d="M333 1274 c-43 -47 -99 -109 -125 -137 -32 -35 -44 -55 -37 -63 5 -6
48 -38 94 -70 47 -33 85 -61 85 -64 0 -3 -29 -41 -65 -85 -36 -44 -65 -84 -65
-90 0 -6 13 -24 28 -41 170 -179 321 -419 397 -629 l26 -70 -6 115 c-12 230
-67 637 -113 840 -19 85 -71 248 -96 305 -8 17 -17 40 -21 53 -3 12 -10 22
-15 22 -5 0 -44 -39 -87 -86z m91 -6 c9 -12 16 -29 16 -36 0 -8 6 -28 14 -45
43 -95 122 -492 146 -737 6 -58 13 -113 16 -122 12 -39 -9 -36 -37 4 -16 24
-29 46 -29 50 0 18 -144 220 -209 295 -39 45 -71 86 -71 91 0 6 30 47 67 93
l67 82 -35 30 c-19 16 -60 47 -92 68 -47 33 -56 43 -48 57 12 23 164 191 173
191 4 1 14 -9 22 -21z"/>
<path d="M1067 1328 c-8 -18 -25 -62 -37 -98 -12 -36 -26 -74 -31 -85 -37 -83
-118 -528 -133 -735 -4 -47 -11 -116 -16 -155 -16 -125 -22 -241 -12 -230 5 6
19 42 31 80 58 181 214 434 370 598 40 42 53 62 46 71 -6 8 -30 39 -55 71 -69
88 -70 89 -62 101 4 5 46 39 95 73 l87 64 -57 61 c-154 164 -204 216 -207 216
-2 0 -10 -15 -19 -32z m132 -138 l92 -99 -78 -62 c-42 -34 -83 -63 -90 -66
-23 -9 -14 -28 52 -108 36 -43 65 -81 65 -84 0 -3 -26 -35 -57 -71 -96 -111
-273 -370 -273 -401 0 -5 -5 -9 -10 -9 -25 0 50 537 102 730 33 127 86 270 98
270 4 0 48 -45 99 -100z"/>
<path d="M560 1275 c0 -89 -1 -88 115 -49 84 28 85 28 205 -14 50 -17 56 -18
61 -3 9 24 10 129 1 135 -4 2 -48 -15 -96 -40 -86 -43 -90 -44 -120 -30 -18 8
-62 29 -99 45 l-67 30 0 -74z"/>
</g>
</svg>
