<?xml version="1.0" standalone="no"?>
<!DOCTYPE svg PUBLIC "-//W3C//DTD SVG 20010904//EN"
 "http://www.w3.org/TR/2001/REC-SVG-20010904/DTD/svg10.dtd">
<svg version="1.0" xmlns="http://www.w3.org/2000/svg"
 width="378.554438pt" height="100.377480pt" viewBox="0 0 378.554438 100.377480"
 preserveAspectRatio="xMidYMid meet">
<metadata>
Created by potrace 1.12, written by Peter Selinger 2001-2015
</metadata>
<g transform="translate(-126.148815,254.941954) scale(0.100000,-0.100000)"
fill="#000000" stroke="none">
<path d="M1361 2459 c-127 -135 -123 -120 -41 -176 38 -26 70 -50 70 -53 0 -3
-23 -33 -51 -68 l-51 -62 53 -58 c60 -64 173 -224 189 -268 6 -16 15 -31 19
-34 10 -6 71 -158 71 -176 0 -7 3 -15 8 -18 8 -5 7 11 -14 244 -26 282 -73
520 -135 682 -17 43 -31 78 -32 77 -1 0 -40 -41 -86 -90z m115 -65 c47 -155
128 -623 111 -641 -3 -2 -18 17 -33 44 -49 86 -122 190 -174 248 -42 49 -48
61 -38 74 7 9 30 37 50 62 21 25 38 48 38 51 0 4 -29 28 -65 54 -36 26 -65 51
-65 55 0 14 132 149 141 144 5 -3 20 -44 35 -91z"/>
<path d="M1920 2513 c-67 -146 -128 -437 -155 -748 -20 -225 -19 -233 10 -157
59 153 147 297 262 429 59 68 59 64 1 134 -21 26 -38 52 -38 58 0 5 27 28 59
51 33 22 63 44 66 50 6 9 -172 210 -186 210 -3 0 -12 -12 -19 -27z m104 -100
l68 -72 -71 -52 c-42 -30 -68 -56 -64 -63 3 -6 23 -31 43 -56 56 -69 56 -65
-3 -133 -60 -68 -146 -192 -173 -250 -20 -42 -33 -48 -28 -14 2 12 8 67 14
122 13 114 44 302 66 390 20 82 65 206 74 203 3 -2 37 -35 74 -75z"/>
<path d="M1550 2471 l0 -60 74 25 73 25 66 -25 65 -24 7 55 c4 30 4 57 1 61
-4 3 -37 -9 -74 -27 l-67 -33 -67 31 c-36 17 -69 31 -72 31 -3 0 -6 -27 -6
-59z"/>
<path d="M2410 2181 c0 -5 4 -11 9 -13 7 -2 17 -241 12 -306 -2 -24 -26 -6
-26 19 0 14 -7 25 -17 27 -21 4 -25 -37 -6 -56 17 -17 59 -15 86 4 21 14 22
21 22 165 0 93 4 149 10 149 6 0 10 5 10 10 0 6 -22 10 -50 10 -27 0 -50 -4
-50 -9z"/>
<path d="M2550 2180 c0 -5 5 -10 10 -10 6 0 10 -43 10 -110 0 -93 -3 -110 -17
-119 -13 -8 13 -10 95 -11 l112 0 0 36 c0 21 -4 33 -10 29 -5 -3 -10 -13 -10
-20 0 -21 -36 -37 -73 -33 -32 3 -32 4 -35 61 -3 62 5 70 38 37 l20 -20 -1 48
c0 26 -3 40 -6 32 -7 -18 -23 -30 -40 -30 -9 0 -13 17 -13 50 0 45 2 50 26 56
32 8 74 -11 81 -36 9 -32 25 -23 21 13 l-3 32 -102 3 c-66 2 -103 -1 -103 -8z"/>
<path d="M2818 2069 c3 -94 1 -124 -10 -130 -8 -6 -1 -9 22 -9 22 0 30 3 22 8
-9 6 -12 36 -10 113 l3 104 45 -112 c25 -62 50 -113 55 -113 11 0 19 16 61
125 15 39 31 74 35 80 5 5 9 -33 9 -86 0 -61 -4 -99 -12 -107 -9 -9 1 -12 46
-12 52 0 56 1 42 16 -13 12 -16 38 -16 120 0 63 4 104 10 104 6 0 10 5 10 11
0 6 -17 9 -42 7 l-43 -3 -32 -80 c-18 -44 -36 -81 -40 -82 -4 -2 -21 30 -37
70 -37 92 -41 97 -85 97 l-36 0 3 -121z"/>
<path d="M3206 2169 c-23 -18 -27 -28 -24 -63 3 -39 6 -42 58 -68 69 -33 81
-44 73 -66 -9 -24 -23 -32 -58 -32 -38 0 -57 17 -45 40 5 9 5 22 0 29 -11 19
-40 6 -40 -17 0 -46 55 -74 123 -61 51 9 77 34 77 75 0 36 -25 59 -95 86 -53
21 -65 41 -41 67 21 24 68 28 84 8 6 -7 9 -23 5 -35 -3 -15 0 -24 12 -28 22
-9 38 9 30 35 -15 49 -112 67 -159 30z"/>
<path d="M3441 2138 l1 -53 14 33 c15 35 53 58 78 49 23 -9 24 -307 1 -307 -8
0 -15 -4 -15 -10 0 -6 32 -10 75 -10 43 0 75 4 75 10 0 6 -7 10 -15 10 -13 0
-15 24 -15 155 0 168 -1 166 55 145 17 -6 27 -20 32 -40 8 -43 25 -22 21 26
l-3 39 -152 3 -153 3 1 -53z"/>
<path d="M3766 2181 c-3 -5 2 -11 12 -13 9 -3 38 -46 65 -96 41 -79 47 -98 47
-151 0 -49 -3 -61 -16 -61 -8 0 -12 -4 -9 -10 8 -12 145 -13 145 -1 0 5 -7 11
-15 15 -11 4 -15 22 -15 72 0 57 5 76 36 135 21 39 47 78 60 88 29 23 22 31
-28 31 -38 0 -51 -13 -23 -24 13 -4 10 -17 -17 -71 -18 -36 -37 -65 -43 -64
-5 0 -25 29 -43 65 -26 53 -29 66 -17 70 8 4 12 10 9 15 -7 12 -141 12 -148 0z"/>
<path d="M4125 2181 c-3 -5 4 -12 15 -16 19 -6 20 -15 20 -151 0 -119 -3 -146
-15 -150 -41 -16 -2 -24 120 -24 l135 0 -1 53 -1 52 -13 -31 c-20 -45 -38 -56
-92 -52 l-48 3 -3 148 c-2 142 -2 149 18 154 11 3 17 9 14 14 -7 12 -141 12
-149 0z"/>
<path d="M4425 2180 c-3 -5 0 -10 8 -10 23 0 27 -23 27 -166 0 -130 -1 -135
-22 -143 -41 -16 2 -22 138 -19 l129 3 3 48 c2 28 -1 47 -7 47 -6 0 -11 -8
-11 -18 0 -10 -9 -28 -21 -41 -17 -18 -29 -21 -72 -19 l-52 3 -3 73 c-3 72 -3
72 23 72 20 0 29 -8 40 -32 14 -32 14 -31 14 42 0 60 -2 70 -10 50 -11 -28
-26 -40 -52 -40 -16 0 -18 8 -15 68 l3 67 43 3 c51 4 89 -17 98 -53 11 -43 25
-27 22 23 l-3 47 -137 3 c-86 2 -139 -1 -143 -8z"/>
<path d="M4840 2172 c-46 -22 -66 -64 -54 -111 9 -37 23 -46 145 -101 69 -31
38 -105 -43 -105 -50 0 -72 25 -56 61 16 34 -9 61 -41 45 -41 -22 -15 -91 41
-110 110 -39 232 23 213 108 -8 40 -40 66 -110 92 -76 28 -85 35 -85 70 0 34
23 49 78 49 46 0 71 -22 56 -48 -24 -40 17 -72 46 -36 35 41 -35 104 -115 104
-22 0 -56 -8 -75 -18z"/>
</g>
</svg>
